HIERARCHY
ROOT Hips
{
	OFFSET 0.000000 0.000000 0.000000
	CHANNELS 6 Xposition Yposition Zposition Zrotation Yrotation Xrotation 
	JOINT LHipJoint
	{
		OFFSET 0.000000 0.000000 0.000000
		CHANNELS 3 Zrotation Yrotation Xrotation
		JOINT LeftUpLeg
		{
			OFFSET 1.363060 -1.794630 0.839290
			CHANNELS 3 Zrotation Yrotation Xrotation
			JOINT LeftLeg
			{
				OFFSET 2.448110 -6.726130 0.000000
				CHANNELS 3 Zrotation Yrotation Xrotation
				JOINT LeftFoot
				{
					OFFSET 2.562200 -7.039590 0.000000
					CHANNELS 3 Zrotation Yrotation Xrotation
					JOINT LeftToeBase
					{
						OFFSET 0.157640 -0.433110 2.322550
						CHANNELS 3 Zrotation Yrotation Xrotation
						End Site
						{
							OFFSET 0.000000 0.000000 0.000000
						}
					}
				}
			}
		}
	}
	JOINT RHipJoint
	{
		OFFSET 0.000000 0.000000 0.000000
		CHANNELS 3 Zrotation Yrotation Xrotation
		JOINT RightUpLeg
		{
			OFFSET -1.305520 -1.794630 0.839290
			CHANNELS 3 Zrotation Yrotation Xrotation
			JOINT RightLeg
			{
				OFFSET -2.542530 -6.985550 0.000000
				CHANNELS 3 Zrotation Yrotation Xrotation
				JOINT RightFoot
				{
					OFFSET -2.568260 -7.056230 0.000000
					CHANNELS 3 Zrotation Yrotation Xrotation
					JOINT RightToeBase
					{
						OFFSET -0.164730 -0.452590 2.363150
						CHANNELS 3 Zrotation Yrotation Xrotation
						End Site
						{
							OFFSET 0.000000 0.000000 0.000000
						}
					}
				}
			}
		}
	}
	JOINT LowerBack
	{
		OFFSET 0.000000 0.000000 0.000000
		CHANNELS 3 Zrotation Yrotation Xrotation
		JOINT Spine
		{
			OFFSET 0.028270 2.035590 -0.193380
			CHANNELS 3 Zrotation Yrotation Xrotation
			JOINT Spine1
			{
				OFFSET 0.056720 2.048850 -0.042750
				CHANNELS 3 Zrotation Yrotation Xrotation
				JOINT Neck
				{
					OFFSET 0.000000 0.000000 0.000000
					CHANNELS 3 Zrotation Yrotation Xrotation
					JOINT Neck1
					{
						OFFSET -0.054170 1.746240 0.172020
						CHANNELS 3 Zrotation Yrotation Xrotation
						JOINT Head
						{
							OFFSET 0.104070 1.761360 -0.123970
							CHANNELS 3 Zrotation Yrotation Xrotation
							End Site
							{
								OFFSET 0.000000 0.000000 0.000000
							}
						}
					}
				}
				JOINT LeftShoulder
				{
					OFFSET 0.000000 0.000000 0.000000
					CHANNELS 3 Zrotation Yrotation Xrotation
					JOINT LeftArm
					{
						OFFSET 3.362410 1.200890 -0.311210
						CHANNELS 3 Zrotation Yrotation Xrotation
						JOINT LeftForeArm
						{
							OFFSET 4.983000 -0.000000 -0.000000
							CHANNELS 3 Zrotation Yrotation Xrotation
							JOINT LeftHand
							{
								OFFSET 3.483560 -0.000000 -0.000000
								CHANNELS 3 Zrotation Yrotation Xrotation
								JOINT LeftFingerBase
								{
									OFFSET 0.000000 0.000000 0.000000
									CHANNELS 3 Zrotation Yrotation Xrotation
									JOINT LeftHandIndex1
									{
										OFFSET 0.715260 -0.000000 -0.000000
										CHANNELS 3 Zrotation Yrotation Xrotation
										End Site
										{
											OFFSET 0.000000 0.000000 0.000000
										}
									}
								}
								JOINT LThumb
								{
									OFFSET 0.000000 0.000000 0.000000
									CHANNELS 3 Zrotation Yrotation Xrotation
									End Site
									{
										OFFSET 0.000000 0.000000 0.000000
									}
								}
							}
						}
					}
				}
				JOINT RightShoulder
				{
					OFFSET 0.000000 0.000000 0.000000
					CHANNELS 3 Zrotation Yrotation Xrotation
					JOINT RightArm
					{
						OFFSET -3.136600 1.374050 -0.404650
						CHANNELS 3 Zrotation Yrotation Xrotation
						JOINT RightForeArm
						{
							OFFSET -5.241900 -0.000000 -0.000000
							CHANNELS 3 Zrotation Yrotation Xrotation
							JOINT RightHand
							{
								OFFSET -3.444170 -0.000000 -0.000000
								CHANNELS 3 Zrotation Yrotation Xrotation
								JOINT RightFingerBase
								{
									OFFSET 0.000000 0.000000 0.000000
									CHANNELS 3 Zrotation Yrotation Xrotation
									JOINT RightHandIndex1
									{
										OFFSET -0.622530 -0.000000 -0.000000
										CHANNELS 3 Zrotation Yrotation Xrotation
										End Site
										{
											OFFSET 0.000000 0.000000 0.000000
										}
									}
								}
								JOINT RThumb
								{
									OFFSET 0.000000 0.000000 0.000000
									CHANNELS 3 Zrotation Yrotation Xrotation
									End Site
									{
										OFFSET 0.000000 0.000000 0.000000
									}
								}
							}
						}
					}
				}
			}
		}
	}
}
MOTION
Frames: 7
Frame Time: 0.008333
0.817061 18.406680 9.772397 -9.717078 4.323409 12.075366 6.763970 4.978112 -1.861867 -19.573902 -43.214189 18.547855 -3.647254 -2.237319 -3.318422 -14.597022 43.485800 -22.486831 0.073100 1.744500 4.800000 0.067257 -4.278639 -0.066968 23.932421 25.149123 2.073753 3.674197 -0.940392 3.675618 8.892741 -27.345488 -6.307308 -0.076900 -1.788600 4.921800 -3.411529 2.685308 4.103473 19.106336 8.467998 -26.490960 -8.964498 0.030236 -6.317155 -19.645078 -7.184905 -9.318790 26.055465 -14.424895 30.848343 5.883500 -4.168200 9.138100 -5.191490 -8.231390 4.206336 -80.095084 -40.890734 58.691634 156.467597 -27.052653 -114.601487 0.132374 -1.818592 -28.445387 25.415522 -4.953418 -1.518100 -7.125000 0.000000 0.000000 -0.317600 26.538400 0.142300 9.881403 9.100287 3.704137 75.069608 8.096991 44.596986 -50.565519 47.618469 -27.838600 0.348925 0.955800 35.568200 -14.238995 -52.985422 11.399600 7.125000 0.000000 0.000000 70.494100 -76.766100 -57.236200 
0.820958 18.407944 9.772186 -9.699467 4.316850 12.176646 6.775091 4.978121 -1.886663 -19.766909 -43.525271 18.764524 -3.651967 -2.252698 -3.362363 -14.697774 43.717915 -22.828033 0.080200 1.827200 5.028400 0.092352 -4.283161 -0.081081 23.863129 25.344808 2.105354 3.683916 -0.909400 3.579032 8.921948 -27.420310 -6.455141 -0.092800 -1.965000 5.409000 -3.490614 2.649301 4.171135 19.287884 8.465150 -26.598647 -8.870538 -0.026161 -6.451626 -18.711409 -7.205732 -10.104563 25.017007 -14.122725 30.753727 5.529700 -4.087400 9.128400 -5.254617 -8.184324 4.227588 -80.526644 -41.028143 59.131560 156.487124 -27.064530 -114.604217 0.093241 -1.814203 -28.128477 25.373311 -5.558211 -1.821100 -7.125000 0.000000 0.000000 -0.344000 25.847800 0.159600 9.741641 9.100720 3.726252 75.246025 8.110368 44.744544 -50.416359 47.576753 -27.710849 0.355170 0.946718 35.714200 -14.377967 -53.050865 11.529300 7.125000 0.000000 0.000000 70.711500 -76.835000 -57.514800 
0.822328 18.409103 9.768605 -9.856500 4.324369 12.137405 6.857596 5.022728 -1.815451 -19.769298 -43.813053 18.927326 -3.657896 -2.289703 -3.416057 -14.805717 43.927505 -23.120290 0.081600 1.842400 5.070400 0.210715 -4.297977 0.006658 23.917434 25.614304 2.170601 3.689680 -0.889792 3.529518 8.972393 -27.551102 -6.631331 -0.099900 -2.038100 5.610900 -3.882626 2.530170 3.757406 20.513172 8.424746 -25.520202 -9.018163 -0.181991 -6.734248 -18.864848 -7.379512 -11.506418 24.924741 -14.046356 30.932896 5.533300 -4.026500 9.344900 -5.410419 -8.092001 4.183998 -80.778630 -41.471820 59.344760 156.517673 -27.035452 -114.615762 0.068626 -1.813256 -27.928739 25.273555 -5.958507 -2.014000 -7.125000 0.000000 0.000000 -0.416500 25.395500 0.197600 9.545192 9.111456 3.684963 75.445045 8.238541 44.712304 -50.486415 47.621878 -27.764688 0.345347 0.937113 36.238863 -14.287309 -52.911883 11.423500 7.125000 0.000000 0.000000 70.089700 -76.763300 -56.854700 
0.822433 18.410472 9.761969 -10.214090 4.333470 11.920072 7.066226 5.141621 -1.610723 -19.605336 -44.030754 19.011194 -3.666516 -2.355094 -3.469788 -14.898464 44.061536 -23.308454 0.083100 1.859400 5.117200 0.483150 -4.307931 0.243153 24.010819 25.851944 2.203066 3.688695 -0.874686 3.515678 9.021559 -27.668357 -6.726431 -0.098300 -2.022100 5.566700 -4.875030 2.262628 2.469999 23.316410 8.279922 -22.722257 -9.425749 -0.441895 -6.933916 -19.159695 -7.479394 -12.870516 24.983074 -13.694759 30.182892 5.551600 -3.888400 9.290700 -5.728552 -8.015779 4.021371 -80.846305 -42.523357 59.256833 156.527228 -26.971469 -114.627102 0.062384 -1.824059 -27.771427 25.108664 -6.106729 -2.067700 -7.125000 0.000000 0.000000 -0.539100 25.246300 0.257700 9.135860 9.111408 3.495146 75.869279 8.487107 44.144948 -51.094762 47.876092 -28.262126 0.300624 0.920997 37.573114 -13.763375 -52.232179 10.853500 7.125000 0.000000 0.000000 67.304100 -76.365500 -53.841300 
0.823802 18.411526 9.759125 -10.171686 4.325470 12.158982 6.979698 5.080706 -1.717140 -19.516631 -44.224416 18.967372 -3.662740 -2.344650 -3.511625 -14.956288 44.208171 -23.533786 0.090100 1.935500 5.327400 0.394802 -4.310996 0.113646 24.059243 26.080306 2.191820 3.695685 -0.866587 3.449237 9.070866 -27.829227 -6.814837 -0.101600 -2.055200 5.658300 -4.414077 2.347909 3.122178 22.354996 8.354233 -24.033596 -9.314849 -0.402295 -6.960511 -19.188913 -7.318214 -12.679593 25.660979 -13.518610 29.380763 5.733000 -3.801000 9.109900 -5.589523 -8.020187 4.106676 -81.207498 -42.333563 59.927683 156.610416 -26.880956 -114.679190 0.063028 -1.808734 -27.564025 24.844333 -6.002325 -2.000500 -7.125000 0.000000 0.000000 -0.747100 25.354200 0.355300 9.245723 9.133397 3.601707 75.479917 8.815827 45.214805 -50.002840 47.436768 -27.333704 0.360383 0.921284 36.522535 -14.511641 -52.711043 11.591900 7.125000 0.000000 0.000000 69.138200 -76.808700 -56.016300 
0.826857 18.411631 9.759546 -10.054709 4.270905 12.328325 6.886308 5.037657 -1.782973 -19.605984 -44.409352 19.051065 -3.665952 -2.339933 -3.537857 -14.946629 44.261671 -23.930206 0.105400 2.093900 5.765200 0.299882 -4.320571 0.021027 24.038732 26.254354 2.227974 3.702307 -0.852870 3.389486 9.114993 -27.957311 -6.889582 -0.102100 -2.060600 5.673300 -3.998253 2.406335 3.623246 21.376033 8.327409 -24.955134 -9.143475 -0.367713 -7.111717 -19.179053 -7.480823 -13.158700 25.929462 -13.700952 29.306883 5.796300 -3.864500 9.207900 -5.483702 -7.974775 4.173904 -81.669251 -42.125057 60.769789 156.728732 -26.795891 -114.735645 0.074390 -1.794136 -27.271918 24.665620 -5.670549 -1.829700 -7.125000 0.000000 0.000000 -0.895700 25.717800 0.418300 9.370473 9.134945 3.665811 75.518885 8.723235 45.573776 -49.523382 47.250997 -26.935776 0.380744 0.926491 36.085207 -14.843876 -52.845252 11.904800 7.125000 0.000000 0.000000 69.677300 -76.979200 -56.702900 
0.830333 18.410999 9.759546 -10.232614 4.201479 12.173756 7.006629 5.120767 -1.633353 -19.703653 -44.623331 19.322415 -3.682293 -2.399238 -3.588365 -14.927936 44.272049 -24.438556 0.129500 2.319800 6.390200 0.458756 -4.331459 0.185502 24.047454 26.353992 2.270347 3.701451 -0.835525 3.374613 9.118373 -27.945284 -6.923925 -0.105300 -2.092900 5.762400 -4.583920 2.248477 2.711557 23.028513 8.206920 -23.053550 -9.387760 -0.509096 -7.211689 -19.283139 -7.649655 -14.284161 25.772519 -13.554658 29.015349 5.735700 -3.810700 9.242200 -5.700556 -7.916740 4.070834 -81.962099 -42.819035 61.229369 156.702853 -26.822453 -114.724091 0.064479 -1.798894 -26.824578 24.633374 -5.723016 -1.848900 -7.125000 0.000000 0.000000 -0.922000 25.667700 0.431700 9.152650 9.144185 3.566946 75.323871 9.378561 45.913118 -49.279458 47.154148 -26.721616 0.396581 0.927234 35.925053 -14.852464 -52.901721 11.933300 7.125000 0.000000 0.000000 69.938700 -77.001900 -56.971600 
